<?xml version="1.0" standalone="no"?>
<!DOCTYPE svg PUBLIC "-//W3C//DTD SVG 20010904//EN"
 "http://www.w3.org/TR/2001/REC-SVG-20010904/DTD/svg10.dtd">
<svg version="1.0" xmlns="http://www.w3.org/2000/svg"
 width="590.000000pt" height="712.000000pt" viewBox="0 0 590.000000 712.000000"
 preserveAspectRatio="xMidYMid meet">
<metadata>
Created by potrace 1.15, written by Peter Selinger 2001-2017
</metadata>
<g transform="translate(0.000000,712.000000) scale(0.100000,-0.100000)"
fill="#000000" stroke="none">
<path d="M2273 7085 c-898 -7 -1649 -16 -1670 -19 -78 -14 -195 -59 -253 -97
-68 -46 -166 -162 -210 -249 -64 -127 -71 -175 -80 -520 -4 -173 -11 -1415
-15 -2760 l-7 -2445 53 -70 c69 -91 194 -214 298 -292 116 -88 247 -159 454
-247 321 -137 492 -188 817 -241 501 -81 1045 -115 1540 -96 837 33 1442 136
1829 311 349 158 640 375 774 580 l36 55 1 2790 1 2790 -21 73 c-63 222 -204
356 -445 424 -79 22 -90 22 -775 24 -382 1 -1429 -4 -2327 -11z m2998 -335
c84 -16 172 -63 203 -110 59 -89 56 19 56 -2055 l0 -1900 -67 -76 c-249 -279
-585 -454 -1147 -599 -654 -168 -1642 -209 -2336 -96 -139 23 -256 50 -488
112 -264 70 -364 104 -480 161 -193 94 -484 294 -599 412 l-53 55 0 1876 c0
2051 -3 1931 57 2042 40 74 100 123 178 147 65 20 89 21 1648 27 870 4 1584 8
1586 10 10 9 1392 3 1442 -6z m125 -4749 c18 -11 42 -40 55 -68 24 -48 24 -50
24 -383 0 -294 -2 -344 -19 -408 -41 -162 -182 -273 -458 -361 -54 -17 -121
-33 -150 -37 -47 -5 -58 -2 -101 25 -98 63 -115 163 -100 571 12 333 17 355
98 436 65 66 193 129 393 195 160 53 211 59 258 30z m-4326 -189 l135 -47 0
-435 0 -435 -25 -50 c-15 -30 -38 -57 -58 -69 -30 -17 -41 -18 -125 -7 -188
24 -293 61 -413 147 -71 50 -115 101 -147 171 -21 45 -22 62 -22 265 0 119 3
219 7 223 3 4 65 -12 136 -36 l130 -43 -1 -155 c-2 -147 -1 -158 21 -193 15
-25 37 -42 66 -53 41 -16 46 -16 79 0 19 9 40 28 46 43 7 17 12 153 13 374 2
224 7 348 13 347 6 0 71 -21 145 -47z m713 -168 c185 -32 341 -60 346 -63 4
-4 11 -57 15 -118 6 -113 6 -113 -16 -113 -13 0 -121 15 -240 33 l-218 33 0
-40 c0 -23 3 -64 6 -91 l6 -51 214 -39 c117 -21 219 -42 226 -46 11 -7 32
-227 22 -238 -1 -2 -104 15 -228 38 -123 22 -227 41 -231 41 -3 0 -5 -37 -3
-82 l3 -83 225 -38 c124 -21 225 -39 226 -40 1 -1 3 -49 5 -107 l4 -105 -105
2 c-167 2 -494 57 -612 102 l-28 11 0 531 0 531 23 -5 c12 -3 174 -31 360 -63z
m2536 -5 c98 -21 140 -83 149 -214 4 -74 2 -88 -23 -142 -15 -34 -40 -74 -56
-89 -16 -15 -29 -30 -29 -34 0 -3 18 -29 40 -59 78 -104 103 -266 56 -367 -42
-91 -109 -128 -281 -158 -119 -21 -533 -71 -538 -66 -3 3 -10 234 -16 514 -8
374 -8 511 0 516 13 8 210 53 379 86 128 25 243 30 319 13z m-1706 -126 c13
-21 81 -141 152 -266 l128 -228 89 193 c50 106 102 220 118 254 l27 61 148 6
c82 4 149 6 151 4 2 -1 6 -237 10 -524 l7 -521 -139 -4 c-76 -3 -142 -3 -146
-1 -5 2 -9 66 -9 141 -1 75 -4 166 -8 202 l-6 64 -84 -212 -85 -212 -65 0 -66
0 -117 228 -117 227 -1 -213 0 -213 -117 3 -118 3 -11 380 c-7 209 -12 444
-13 523 l-1 142 125 0 125 0 23 -37z"/>
<path d="M1685 6298 c-187 -4 -421 -11 -520 -15 l-180 -8 -3 -162 -2 -163 362
0 c390 0 547 -9 673 -40 174 -43 265 -115 327 -258 l33 -77 -4 -570 c-2 -313
-6 -739 -10 -947 l-6 -376 -75 91 c-176 213 -334 291 -590 291 -145 1 -221
-16 -345 -73 -168 -78 -302 -250 -371 -476 -25 -83 -26 -302 -1 -395 61 -229
230 -411 448 -484 148 -50 371 -50 526 -1 217 68 362 226 458 498 l28 78 36
-68 c84 -159 211 -304 322 -371 134 -79 339 -141 544 -163 71 -8 316 -9 848
-4 l747 7 0 168 0 167 -172 7 c-95 4 -285 11 -423 16 -260 9 -343 21 -481 64
-277 88 -342 244 -375 896 -12 226 -6 1150 7 1237 l6 41 61 -76 c170 -215 309
-301 535 -332 193 -26 430 33 551 137 106 90 224 277 271 428 42 136 37 300
-11 413 -59 137 -228 327 -360 405 -105 62 -184 82 -324 82 -102 0 -134 -4
-215 -28 -136 -41 -240 -98 -315 -173 -66 -66 -153 -189 -200 -282 l-26 -54
-55 110 c-83 170 -194 278 -378 367 -138 67 -225 84 -456 90 -411 11 -556 11
-885 3z m2505 -724 c0 -279 -3 -525 -6 -546 l-7 -38 -54 0 c-140 0 -262 79
-395 255 -55 72 -67 108 -78 222 -16 181 23 314 121 419 56 59 165 131 239
158 44 16 172 46 178 41 1 -1 2 -231 2 -511z m-1455 364 c101 -29 219 -94 272
-151 24 -26 57 -76 73 -110 61 -131 60 -119 60 -1214 0 -828 3 -1013 15 -1088
23 -141 59 -232 138 -349 l39 -58 -53 7 c-133 17 -219 49 -338 125 -70 45 -82
57 -110 114 -110 223 -138 436 -119 886 6 130 7 507 4 892 -7 743 -6 727 -80
899 l-35 80 32 -6 c18 -4 64 -16 102 -27z m-893 -2079 c277 -58 449 -353 384
-660 -47 -220 -248 -394 -482 -416 l-64 -6 0 547 0 546 55 0 c29 0 78 -5 107
-11z"/>
<path d="M5030 1633 c-95 -49 -95 -50 -95 -306 1 -155 4 -231 13 -251 13 -29
13 -29 80 -22 78 8 112 28 128 77 7 20 13 126 15 256 l4 221 -24 26 c-31 33
-54 33 -121 -1z"/>
<path d="M3985 1376 l-80 -22 0 -76 c0 -42 3 -79 7 -83 7 -8 147 11 195 26 43
14 63 44 63 95 0 78 -57 97 -185 60z"/>
<path d="M3998 952 l-88 -15 0 -89 0 -90 83 7 c98 8 145 29 171 76 22 41 17
78 -16 109 -25 23 -32 23 -150 2z"/>
</g>
</svg>
